<svg clip-rule="evenodd" fill-rule="evenodd" stroke-linejoin="round" stroke-miterlimit="2" viewBox="0 0 667 655" xmlns="http://www.w3.org/2000/svg"><g fill-rule="nonzero" transform="scale(4.16667)"><path d="m19.325 87.336c.024 34.266 25.522 62.684 58.544 67.298 33.037-4.617 58.544-33.059 58.544-67.346l.021-.09c-.023-32.293-26.277-58.557-58.544-58.557-32.28 0-58.542 26.287-58.542 58.599zm60.022 67.487c2.618.308 5.283.466 7.981.466 37.409 0 67.861-30.367 68.002-67.744-.148-42.48-34.84-76.992-77.461-76.992s-77.313 34.512-77.461 76.992c.141 37.377 30.592 67.744 68.002 67.744 2.698 0 5.363-.158 7.98-.466-32.54-5.252-57.473-33.537-57.473-67.535l.023-.096c.026-32.515 26.461-58.96 58.95-58.96 32.507 0 58.952 26.471 58.952 59.008l-.021.09c-.02 33.98-24.947 62.244-57.474 67.493zm7.981.874c-3.21 0-6.366-.221-9.459-.651-3.093.43-6.25.651-9.459.651-37.544 0-68.122-30.4-68.408-67.878h-.002l.002-.531c.288-42.586 35.108-77.143 77.867-77.143s77.579 34.557 77.867 77.143h.002l-.002.531c-.287 37.478-30.864 67.878-68.408 67.878z" fill="#00a65f"/><path d="m23.086 69.114c.066 32.031 26.12 58.067 58.134 58.067 32.057 0 58.135-26.105 58.135-58.192l.022-.185c-.067-34.001-25.37-62.188-58.136-66.796-32.81 4.615-58.136 32.873-58.136 66.934zm-18.897-.429c.147 42.256 34.656 76.584 77.052 76.584 42.397 0 76.906-34.328 77.053-76.584-.141-37.153-30.409-67.337-67.594-67.337-1.691 0-3.366.063-5.026.185 31.311 6.443 54.928 34.22 54.928 67.409l-.023.186c-.075 32.699-26.674 59.278-59.359 59.278-32.73 0-59.358-26.655-59.358-59.417l.02-.172c.059-33.134 23.654-60.849 54.926-67.284-1.66-.122-3.335-.185-5.026-.185-37.185 0-67.453 30.184-67.593 67.337zm77.052 77.808c-42.985 0-77.989-34.738-78.275-77.551h-.002l.002-.531c.289-37.701 31.048-68.286 68.816-68.286 3.208 0 6.367.22 9.459.647 3.093-.427 6.251-.647 9.459-.647 37.768 0 68.528 30.585 68.817 68.286h.002l-.002.531c-.286 42.813-35.29 77.551-78.276 77.551z" fill="#00b2b0"/><g fill="#003347"><path d="m47.567 126.568c26.65 16.56 61.815 8.499 78.529-18.063 16.772-26.655 8.712-62-17.969-78.789l-.345-.242c-14.983-9.315-32.691-12.289-49.911-8.371-14.224 3.236-26.718 10.859-35.976 21.802-5.863 13.083-7.329 27.645-4.093 41.871 3.946 17.339 14.407 32.105 29.457 41.576zm-10.712 15.587c17.118 10.729 37.399 14.154 57.124 9.638 19.773-4.524 36.62-16.483 47.436-33.673 10.819-17.19 14.311-37.552 9.835-57.336-4.447-19.659-16.234-36.409-33.207-47.205-15.022-9.406-32.807-12.421-50.097-8.487-16.544 3.764-30.744 13.46-40.238 27.415 8.4-7.069 18.424-12.082 29.439-14.588 18.189-4.138 36.902-.946 52.691 8.989l.347.247c27.949 17.828 36.339 55.017 18.675 83.088-17.732 28.179-55.104 36.663-83.311 18.915l-.31-.22c-15.638-9.943-26.506-25.355-30.62-43.437-2.507-11.016-2.324-22.222.416-32.855-17.798 30.691-8.299 70.312 21.82 89.509zm40.046 14.845c-14.541 0-28.814-4.036-41.456-11.876l-.001.003-.005-.003c-.07-.044-.14-.089-.21-.133l-.237-.15v-.001c-32.23-20.625-41.874-63.578-21.46-96.02 1.7-2.701 3.563-5.261 5.574-7.671 1.301-2.854 2.803-5.639 4.502-8.339 9.935-15.789 25.424-26.763 43.614-30.902 18.015-4.1 36.547-1.006 52.24 8.708l.001-.003c.001.001.001.001.002.002l.007.004c.059.037.12.075.179.113l.258.163c.001.001.003.002.004.003l.002.002c17.642 11.264 29.892 28.703 34.52 49.164 4.668 20.633 1.025 41.869-10.256 59.795-11.28 17.926-28.85 30.398-49.472 35.117-5.917 1.354-11.885 2.023-17.806 2.024z"/><path d="m73.119 101.167c0-.776-.631-1.406-1.404-1.406-.514 0-1.015.19-1.395.547v4.909c0 .131-.107.237-.238.237-.132 0-.227-.106-.227-.237v-4.443c0-.597-.524-1.013-1.24-1.013-.57 0-1.071.083-1.571.274v5.182c0 .131-.108.237-.24.237-.117 0-.225-.106-.225-.237v-5.206c0-.155.095-.298.25-.358.573-.214 1.143-.321 1.786-.321.55 0 1.122.179 1.455.596.429-.393 1.024-.596 1.645-.596 1.059 0 1.869.809 1.869 1.869v4.016c0 .131-.106.237-.226.237-.131 0-.239-.106-.239-.237z"/><path d="m75.373 102.429v1.025c0 .941.583 1.572 1.536 1.572.501 0 .977-.155 1.442-.346.036-.011.072-.023.107-.023.107 0 .227.096.227.214 0 .095-.06.179-.143.216-.512.225-1.061.367-1.633.367-.595 0-1.095-.19-1.453-.548-.357-.357-.548-.869-.548-1.452v-2.122c0-.595.191-1.096.548-1.452.358-.358.858-.548 1.453-.548.597 0 1.097.19 1.454.548.357.356.548.857.548 1.452v.715c0 .215-.167.382-.381.382zm3.074-1.132c0-.953-.584-1.536-1.538-1.536-.953 0-1.536.583-1.536 1.536v.703h3.074z"/><path d="m80.044 101.333c0-.596.191-1.096.547-1.453.357-.358.857-.549 1.455-.549.559 0 1.096.18 1.536.501v-2.728c0-.132.107-.239.238-.239.12 0 .227.107.227.239v7.696c0 .167-.107.31-.263.369-.547.203-1.131.286-1.738.286-.598 0-1.098-.19-1.455-.548-.356-.357-.547-.87-.547-1.453zm3.538-.941c-.417-.405-.966-.632-1.536-.632-.955 0-1.539.584-1.539 1.538v2.191c0 .941.584 1.538 1.539 1.538.535 0 1.047-.084 1.536-.239z"/><path d="m91.232 101.083c0-.893-.631-1.323-1.394-1.323-.489 0-.966.144-1.43.406-.036.024-.095.035-.131.035-.107 0-.215-.084-.215-.215 0-.082.037-.154.12-.202.572-.322 1.06-.453 1.62-.453 1.025 0 1.894.56 1.894 1.632v3.837c0 .167-.107.31-.262.369-.512.191-1.143.286-1.632.286-.715 0-1.263-.166-1.62-.488-.322-.298-.489-.727-.489-1.251 0-.549.167-.953.489-1.251.357-.322.905-.477 1.62-.477h1.43zm0 1.334h-1.43c-.595 0-1.036.119-1.31.369-.226.203-.334.512-.334.93 0 .405.108.726.334.929.274.251.715.381 1.31.381.429 0 .977-.107 1.43-.25z"/><path d="m85.703 97.235c0-.202.167-.37.369-.37.204 0 .358.168.358.37s-.154.369-.358.369c-.202 0-.369-.167-.369-.369zm.131 2.323c0-.119.107-.226.238-.226.12 0 .227.107.227.226v5.659c0 .131-.107.237-.227.237-.131 0-.238-.106-.238-.237z"/><path d="m87.568 79.376c0 5.611-3.781 9.392-9.355 9.392-5.611 0-9.392-3.781-9.392-9.392v-8.744c0-5.612 3.781-9.392 9.392-9.392 5.574 0 9.355 3.78 9.355 9.392zm-4.046-8.973c0-3.398-1.91-5.42-5.309-5.42-3.398 0-5.346 2.022-5.346 5.42v9.201c0 3.399 1.948 5.423 5.346 5.423 3.399 0 5.309-2.024 5.309-5.423z"/><path d="m90.837 70.632c0-5.611 3.78-9.392 9.355-9.392 5.611 0 9.392 3.781 9.392 9.392v8.744c0 5.612-3.781 9.392-9.392 9.392-5.575 0-9.355-3.78-9.355-9.392zm4.045 8.973c0 3.398 1.911 5.42 5.31 5.42 3.398 0 5.346-2.022 5.346-5.42v-9.201c0-3.399-1.948-5.423-5.346-5.423-3.399 0-5.31 2.024-5.31 5.423z"/><path d="m50.941 88.343c-1.385 0-2.498-1.114-2.498-2.46v-22.028c0-1.343 1.113-2.46 2.498-2.46h6.266c4.536 0 7.573 3 7.573 7.458 0 2.038-.847 3.922-2.575 5.343 2.268 1.539 3.304 3.844 3.304 6.152 0 4.805-3.227 7.995-8.033 7.995zm5.69-15.915c2.344 0 4.075-1.577 4.075-3.575 0-2.268-1.154-3.574-3.499-3.574h-4.691v7.149zm.845 12.033c2.616 0 3.959-1.501 3.959-4.113 0-2.231-1.92-4.036-4.574-4.036h-4.345v8.149z"/></g></g></svg>