<svg viewBox="0 0 2484 2484" xmlns="http://www.w3.org/2000/svg" fill-rule="evenodd" clip-rule="evenodd" stroke-linejoin="round" stroke-miterlimit="2"><g transform="scale(4.16667)"><path d="M456.038 386.932l-.462-22.248-1.66-80.419-1.561-75.928-2.054-108.49-.158-.042s-12.772-3.281-39.084-6.492c-25.107-3.048-62.615-6.024-113.335-6.024-98.008 0-149.176 11.728-152.586 12.528l-.09.023-2.049 108.509-1.564 75.941-1.668 80.426-.45 22.216c-.019 1.948.117 3.894.326 5.833.73 6.621 2.921 13.255 5.858 19.251a66.62 66.62 0 0 0 2.38 4.296c2.848 4.736 4.221 6.532 10.813 13.632 9.639 10.375 32.341 25.463 60.027 43.974 16.031 10.078 51.989 32.071 73.874 44.525 1.173.669 5.044 2.825 5.044 2.825s3.866-2.156 5.03-2.825c21.954-12.491 61.513-36.544 73.955-44.734 27.567-18.161 47.257-30.871 60.167-43.932 4.306-4.357 8.013-8.674 10.669-13.465.611-1.074 1.855-3.231 2.381-4.296 2.938-5.996 5.139-12.63 5.866-19.251.215-1.939.346-3.885.331-5.833z" fill="rgb(112,170,220)" fill-rule="nonzero"/><path d="M297.724 87.288c50.72 0 88.228 2.976 113.335 6.026 26.312 3.211 39.083 6.491 39.083 6.491l.159.041-.003-.186v-.018l-.121-5.695c-3.406-.805-54.577-12.535-152.587-12.535-50.716 0-88.22 2.978-113.33 6.028-26.309 3.199-39.086 6.482-39.086 6.482l-.124 5.688-.002.231.089-.023c3.411-.802 54.579-12.53 152.587-12.53z" fill="rgb(112,170,220)" fill-rule="nonzero"/><path d="M386.95 320.814c-40.325-29.38-115.685-43.369-175.272-.251l3.233 1.771-.298-.164 28.401 15.552c40.88-43.272 107.796-35.961 143.936-16.907-5.348-3.771-11.213-7.197-17.488-10.228 6.275 3.031 12.14 6.457 17.488 10.227z" fill="rgb(7,39,68)" fill-rule="nonzero"/><path d="M304.536 110.389c2.245-1.474 3.314-4.434 3.314-7.548 0-2.369-.722-5.159-3.314-6.707-1.954-1.173-4.961-1.748-8.356-1.748h-19.483c-.847.03-1.194.354-1.194 1.201l-.006.004v14.303l-8.805-15.508h-6.636c-.844.03-1.202.354-1.202 1.205v26.068h7.191v-15.401l8.283 14.023c.648 1.005 1.454 1.371 2.73 1.378h5.706V99.375h13.172c3.389 0 4.686 1.423 4.686 3.7 0 2.532-1.562 3.864-3.705 3.864h-3.624v-4.184c0-.715-.326-1.053-1.142-1.053h-6.079v19.957h7.221v-9.391h3.2s6.649 7.965 7.008 8.393c.669.687 1.206.998 2.455.998h6.712l-9.302-10.695c.114-.032.577-.182 1.17-.575z" fill="rgb(31,58,112)" fill-rule="nonzero"/><path d="M331.464 116.199h-13.735V94.387h-6.091c-.728.028-1.088.283-1.154.922v19.688l5.794 6.663h16.316v-4.416c-.005-.702-.322-1.045-1.13-1.045zm6.498 74.125h5.739l-2.916-11.647-2.823 11.647zm15.891 12.528h-7.33l-1.778-7.109h-8.059l-2.047 7.109h-8.514l10.34-31.873h8.963s9.699 30.408 9.699 30.459c.274.998-.181 1.414-1.274 1.414zM193.5 170.979v31.873h6.374c1.09 0 1.545-.416 1.545-1.465v-12.066h10.744v-5.368h-10.744v-7.601h11.838v-5.373H193.5zm41.203 17.258c-.207 7.082-1.849 8.738-5.711 8.738-4.032 0-5.2-2.323-5.357-8.653a81.015 81.015 0 0 1-.018-1.681c0-7.599 1.272-10.067 5.78-10.067 3.51 0 5.329 1.504 5.329 10.026 0 .575-.01 1.12-.023 1.637zm-5.621-17.579c-9.288 0-13.427 5.281-13.427 15.751 0 .602.009 1.189.027 1.755.345 10.72 4.004 14.908 13.126 14.908 9.021 0 13.294-4.174 13.676-14.409.018-.506.027-1.028.027-1.564 0-11.201-3.781-16.441-13.429-16.441zm35.647 17.577c-.21 7.084-1.858 8.74-5.714 8.74-4.034 0-5.197-2.323-5.354-8.653a81.015 81.015 0 0 1-.018-1.681c0-7.599 1.27-10.067 5.779-10.067 3.506 0 5.328 1.504 5.328 10.026 0 .575-.01 1.117-.021 1.635zm-5.621-17.577c-9.29 0-13.435 5.281-13.435 15.751 0 .602.012 1.189.031 1.755.341 10.72 4.004 14.908 13.128 14.908 9.018 0 13.289-4.174 13.673-14.409.021-.506.03-1.028.03-1.564 0-11.201-3.779-16.441-13.427-16.441zm14.362.321v5.373h8.011v26.5h6.466c1 0 1.458-.416 1.458-1.416v-25.084h7.963v-5.373H273.47zm43.655 23.71c-.505 1.472-1.872 2.602-4.94 2.602-2.417 0-3.647-.132-3.647-.132v-8.105s1.823-.131 3.96-.096c3.234.096 4.869 1.506 4.869 4.103 0 .561-.072 1.115-.242 1.628zm-1.586-13.144c-.537 1.488-1.933 2.109-3.77 2.183-1.233.041-3.231 0-3.231 0v-7.377s1.501-.137 2.593-.137c3.51 0 4.642 1.273 4.642 3.822 0 .579-.08 1.081-.234 1.509zm6.554 5.354a8.146 8.146 0 0 0-2.405-1.217c1.803-.922 3.313-2.644 3.744-4.905.083-.423.124-.868.124-1.325 0-6.012-3.365-8.793-12.015-8.793-4.69 0-10.927.871-10.927.871v30.678s6.422.908 11.108.908c8.005 0 12.646-2.299 13.409-7.872a12.25 12.25 0 0 0 .114-1.73c0-2.656-1.095-5.083-3.152-6.615zm44.056 10.341v-26.261h-7.917v31.873h18.66c1.095 0 1.548-.416 1.548-1.465v-4.147h-12.291zm23.339.001v-26.262h-7.924v31.871h18.665c1.095 0 1.55-.414 1.55-1.463v-4.146h-12.291zm-148.476-36.913c0 .992-.448 1.401-1.451 1.401h-6.408v-26.307h-7.958v-5.327h23.734v5.327h-7.917v24.906zm18.106-14.693c0 7.552.996 10.263 5.329 10.263 4.115 0 5.697-1.902 5.697-10.306 0-8.443-1.808-9.945-5.29-9.945-4.469 0-5.736 2.449-5.736 9.988zm18.758.454c0 11.302-4.209 15.872-13.604 15.872-9.54 0-13.066-4.62-13.066-16.548 0-10.396 4.117-15.64 13.331-15.64 9.582 0 13.339 5.193 13.339 16.316zm4.532-15.993h7.859v20.603c0 3.03.949 5.251 4.657 5.251 3.71 0 4.381-2.394 4.381-4.974v-20.88h7.869v19.251c0 8.545-3.981 12.65-12.565 12.65-8.551 0-12.201-4.508-12.201-12.88v-19.021zm80.892 0v30.234c0 .991-.453 1.401-1.451 1.401h-6.419v-13.692h-8.722v13.692h-7.864v-31.635h7.864v12.609h8.722v-12.609h7.87zm-28.79 30.913s-4.839.989-9.49.989c-7.693 0-13.434-3.616-13.434-16.498 0-11.031 5.971-15.729 14.06-15.729 4.613 0 8.68 1.223 8.68 1.223l-1.09 5.242s-3.79-.945-6.32-.814c-4.432.317-7.464 2.674-7.464 10.262 0 8 2.581 10.127 7.367 10.442 2.804.18 6.831-.764 6.831-.764l.86 5.647zm-81.444 70.455l.345 31.74-14.628-31.74H225.88v48.299h10.074l-.345-34.223 15.939 34.223h9.384c.759 0 1.311-.138 1.656-.483s.483-.897.483-1.656v-46.16h-10.005zm49.955 2.622c-1.38-.552-2.898-1.035-4.485-1.518-1.38-.345-2.967-.759-4.83-1.104-1.863-.345-3.864-.483-6.003-.483-2.07 0-4.14.207-6.21.552-2.139.414-4.002 1.104-5.727 2.139-1.725 1.035-3.105 2.484-4.208 4.278-1.173 1.794-1.794 4.071-1.932 6.9-.069 2.277.207 4.14.828 5.589.621 1.518 1.518 2.76 2.69 3.726 1.104.966 2.415 1.725 3.864 2.277 1.449.621 2.967 1.104 4.554 1.518a63.01 63.01 0 0 0 4.485 1.242c1.449.345 2.76.828 3.933 1.38 1.173.621 2.07 1.311 2.76 2.208.621.896.966 2.069.897 3.518-.069 2.415-.828 4.002-2.139 4.899-1.38.897-3.381 1.173-6.003.966-1.311-.069-2.76-.345-4.416-.69-1.656-.345-3.243-.759-4.761-1.104l-5.381-1.449-2.07 7.659a32.797 32.797 0 0 0 5.381 1.794c1.656.483 3.588.897 5.865 1.242s4.692.552 7.314.552c2.829 0 5.313-.414 7.452-1.173 2.139-.759 3.864-1.794 5.313-3.105 1.449-1.311 2.484-2.829 3.243-4.623.69-1.725 1.035-3.657 1.035-5.727 0-2.277-.345-4.277-1.035-5.864-.69-1.587-1.587-2.967-2.76-4.071a19.802 19.802 0 0 0-3.933-2.691 35.748 35.748 0 0 0-4.485-1.794c-1.518-.483-3.036-.897-4.485-1.311-1.449-.345-2.76-.828-3.933-1.311s-2.139-1.035-2.829-1.725c-.759-.69-1.104-1.587-1.173-2.622-.069-1.035.138-1.863.552-2.622.345-.759.897-1.311 1.587-1.794a8.116 8.116 0 0 1 2.484-.966c.897-.207 1.932-.276 2.967-.276 1.449 0 2.967.138 4.485.345 1.518.276 2.898.552 4.209.828 1.518.345 2.967.759 4.416 1.173l2.484-6.762zm44.712 45.677h9.66c1.449 0 2.346-.69 2.829-2.139l11.937-46.16h-11.454l-7.59 36.914-8.763-36.914h-9.453l-9.246 36.914-6.624-36.914h-10.833l11.04 48.299h11.454l8.694-35.258 8.349 35.258z" fill="rgb(31,58,112)" fill-rule="nonzero"/><path fill="white" fill-rule="nonzero" d="M156.678 214.442H438.601V217.142H156.678z"/><path d="M320.71 316.455c-2.651-1.784-6.4-2.414-8.489-2.569-2.091-.147-2.295-.057-2.376-.068 0 0 3.951 1.855 5.125 3.348-1.12.179-2.262.393-3.46.644-3.132-1.492-6.546-1.943-7.554-2.042-1.013-.101-2.609-.053-2.609-.053s4.271 1.545 5.409 3.252a62.84 62.84 0 0 0-2.934.872c-3.264-1.7-6.739-2.036-8.028-2.042-1.288-.01-2.26.172-2.26.172s3.273 1.24 5.784 3.464c-13.464 5.235-25.84 14.188-37.793 27.337l-2.137 2.641v.494l2.94-2.318c13.089-11.314 27.292-19.354 42.218-23.899 2.302 1.782 3.828 4.383 4.72 6.534l.644 1.562s.361-.831.46-1.76c.198-2.445-.433-5.426-1.599-7.518a92.506 92.506 0 0 1 3.818-.918c2.31 1.66 4.294 4.655 5.221 6.789l.626 1.537s.384-.596.474-1.755c.173-2.162-.579-5.357-1.828-7.436a96.994 96.994 0 0 1 3.962-.591c1.075.561 2.753 2.776 4.048 5.209.476.895.92 1.861 1.265 2.806 0 0 .373-.664.439-2.09.06-1.424-.706-4.548-1.58-6.387 3.62-.318 7.296-.44 10.939-.369 16.082.318 29.072 4.343 37.145 7.666 0 0 1.925.783 7.112 3.188-.827-.754-1.277-1.313-6.65-4.236-15.945-8.811-36.538-12.867-53.052-11.464z" fill="white"/><path d="M456.058 386.983l-.465-22.25-1.364-66.268-159.712 88.058-153.402-86.076-1.332 64.318-.45 22.218c-.017 1.948.117 3.894.326 5.832.729 6.622 2.921 13.253 5.858 19.251a66.14 66.14 0 0 0 1.692 3.13c.219.394.45.778.688 1.166 2.851 4.736 4.224 6.533 10.812 13.633 9.642 10.375 32.341 25.463 60.031 43.973 16.031 10.079 51.986 32.072 73.873 44.528 1.174.668 5.044 2.822 5.044 2.822s3.866-2.154 5.03-2.822c21.954-12.493 61.514-36.547 73.954-44.737 27.568-18.161 47.258-30.871 60.168-43.932 4.306-4.356 8.016-8.674 10.67-13.465.609-1.073 1.853-3.231 2.383-4.296 2.936-5.998 5.136-12.629 5.862-19.251.217-1.938.35-3.884.334-5.832z" fill="rgb(112,170,220)" fill-rule="nonzero"/><path d="M455.616 366.635l-.042-1.953-.094-4.526-157.842 89.898-157.778-89.907-.092 4.57-.039 1.916 157.909 89.98 157.978-89.978z" fill="rgb(31,58,112)" fill-rule="nonzero"/><path d="M457.439 294.255l-3.277 1.836-.036-1.715-156.49 89.125-156.411-89.125-.028 1.379-1.926-1.116-3.449 42.55 4.464 2.452-.01.507v.004l157.363 89.778 157.429-89.778-.026-1.278 1.628-.919.769-43.7z" fill="rgb(7,39,68)" fill-rule="nonzero"/><path d="M458.205 402.739l-1.15-43.316-159.418 90.629-160.666-91.013-1.916 36.416 6.901 13.8 2.093-.431c.006.014.01.029.017.043l153.573 87.614 153.637-87.612.002-.004.012-.006 6.915-6.12z" fill="rgb(7,39,68)" fill-rule="nonzero"/><path d="M471.448 76.781l-11.762 9.504 5.936 300.572a57.735 57.735 0 0 1-.364 6.951c-.806 7.329-3.109 14.878-6.828 22.47-.801 1.59-1.656 3.228-2.727 4.968a84.798 84.798 0 0 1-4.375 6.374c-2.993 3.958-6.436 7.721-10.373 11.47-12.004 11.437-28.484 22.466-51.187 37.603l-8.07 5.375c-17.485 10.991-53.013 32.664-74.221 44.739-1.196.688-9.808 5.444-9.838 5.46v13.683l10.573-5.863s3.975-2.224 5.136-2.902c21.321-12.131 57.079-33.932 74.691-45.002l8.309-5.527c35.321-23.557 56.651-37.782 69.55-59.197a74.819 74.819 0 0 0 3.268-5.943c4.315-8.796 6.981-17.678 7.928-26.358.35-3.036.499-5.79.474-8.545l-6.12-309.832zm-173.81 455.487s-8.583-4.833-9.749-5.495c-21.229-12.083-56.762-33.755-74.235-44.737l-8.036-5.357c-33.941-22.623-54.429-36.294-65.952-55.416a71.638 71.638 0 0 1-2.769-5.024c-3.694-7.552-5.972-15.101-6.785-22.42-.284-2.534-.412-4.823-.387-6.962l5.898-300.572.085-.021-.085-.036-11.79-9.447-6.124 309.982c-.017 2.631.132 5.359.465 8.349.946 8.722 3.618 17.616 7.958 26.466a81.67 81.67 0 0 0 3.237 5.881c12.896 21.408 34.213 35.622 69.558 59.195l8.31 5.529c17.611 11.07 53.358 32.872 74.651 44.988 1.229.706 5.336 2.974 5.336 2.974l10.414 5.805v-13.682z" fill="rgb(31,58,112)" fill-rule="nonzero"/><path d="M297.679 71.705c105.825.026 154.719 12.837 154.719 12.837l7.288 1.743 11.767-9.504s-2.036-.711-17.013-4.057c-7.077-1.585-58.001-13.241-156.756-13.241h-.085c-98.765 0-149.686 11.645-156.757 13.241-13.211 2.981-17.01 4.057-17.01 4.057l11.79 9.446.064.042 7.271-1.727s48.895-12.811 154.722-12.837z" fill="rgb(31,58,112)" fill-rule="nonzero"/><path d="M158.694 429.944c-6.592-7.1-7.966-8.896-10.813-13.631a63.792 63.792 0 0 1-2.379-4.297c-2.938-5.996-5.13-12.632-5.86-19.251-.209-1.939-.345-3.884-.326-5.833l.451-22.215 1.667-80.426 1.565-75.942 2.05-108.741.125-5.687s12.777-3.281 39.086-6.48c25.11-3.052 62.613-6.03 113.332-6.03 98.008 0 149.178 11.732 152.584 12.534l.122 5.695v.021l2.059 108.675 1.559 75.929 1.659 80.417.462 22.25c.016 1.949-.115 3.894-.33 5.833-.728 6.619-2.929 13.255-5.867 19.251-.526 1.065-1.77 3.222-2.38 4.297-2.657 4.79-6.364 9.108-10.67 13.464-12.91 13.059-32.6 25.771-60.167 43.93-12.439 8.192-51.998 32.246-73.953 44.737-1.166.669-5.032 2.824-5.032 2.824s-3.868-2.155-5.041-2.824c-21.887-12.455-57.846-34.45-73.874-44.526-27.687-18.51-50.39-33.598-60.029-43.974zm46.924 46.734l8.036 5.357c17.473 10.982 53.006 32.655 74.235 44.74 1.166.66 9.749 5.492 9.749 5.492s8.642-4.77 9.837-5.46c21.209-12.075 56.736-33.748 74.222-44.74l8.072-5.375c22.703-15.136 39.183-26.165 51.187-37.602 3.937-3.75 7.38-7.512 10.371-11.471a84.51 84.51 0 0 0 4.377-6.373c1.071-1.741 1.926-3.376 2.725-4.966 3.719-7.594 6.022-15.141 6.828-22.473.279-2.523.385-4.812.364-6.948l-5.936-300.575-7.289-1.743S403.502 71.73 297.68 71.705c-105.828.025-154.723 12.836-154.723 12.836l-7.334 1.743-5.898 300.575c-.024 2.136.103 4.425.387 6.96.813 7.32 3.091 14.867 6.784 22.422a72.323 72.323 0 0 0 2.771 5.023c11.522 19.12 32.012 32.791 65.951 55.414z" fill="white" fill-rule="nonzero"/></g></svg>